<?xml version="1.0" standalone="no"?>
<!DOCTYPE svg PUBLIC "-//W3C//DTD SVG 20010904//EN"
 "http://www.w3.org/TR/2001/REC-SVG-20010904/DTD/svg10.dtd">
<svg version="1.0" xmlns="http://www.w3.org/2000/svg"
 width="1002.000000pt" height="868.000000pt" viewBox="0 0 1002.000000 868.000000"
 preserveAspectRatio="xMidYMid meet">
<metadata>
Created by potrace 1.11, written by Peter Selinger 2001-2013
</metadata>
<g transform="translate(0.000000,868.000000) scale(0.100000,-0.100000)"
fill="#000000" stroke="none">
<path d="M6525 8663 c-281 -59 -506 -279 -576 -563 -8 -31 -14 -106 -14 -170
0 -122 12 -188 52 -285 91 -218 290 -388 523 -446 31 -8 106 -14 170 -14 64 0
139 6 170 14 275 68 493 286 561 561 8 31 14 106 14 170 0 165 -33 276 -120
410 -166 257 -481 387 -780 323z"/>
<path d="M5056 7459 c-92 -23 -220 -80 -302 -137 -79 -54 -1604 -1585 -1672
-1678 -57 -78 -123 -213 -140 -284 -52 -220 11 -449 177 -644 46 -54 106 -93
798 -511 l748 -452 3 -1041 2 -1042 380 0 380 0 -2 1362 -3 1362 -450 347
c-247 191 -451 351 -452 356 -2 4 210 221 471 482 l473 473 135 -198 c74 -110
232 -344 352 -521 l217 -323 879 0 880 0 0 380 0 380 -667 2 -666 3 -364 630
c-200 347 -388 667 -418 712 -198 292 -467 414 -759 342z"/>
<path d="M1860 4170 c-540 -66 -1026 -327 -1368 -735 -359 -428 -535 -991
-481 -1541 24 -255 87 -477 199 -709 209 -435 540 -766 975 -975 232 -112 454
-175 709 -199 677 -66 1351 210 1794 734 358 425 535 990 481 1541 -24 255
-87 477 -199 709 -300 623 -856 1038 -1555 1161 -98 18 -453 26 -555 14z m522
-659 c507 -109 919 -475 1082 -962 54 -159 70 -268 70 -459 0 -191 -16 -300
-70 -459 -166 -497 -599 -873 -1114 -968 -130 -24 -390 -24 -520 0 -588 109
-1058 579 -1167 1167 -24 130 -24 390 0 520 102 551 523 1004 1067 1145 192
50 461 56 652 16z"/>
<path d="M7700 4170 c-540 -66 -1026 -327 -1368 -735 -359 -428 -535 -991
-481 -1541 24 -255 87 -477 199 -709 209 -435 540 -766 975 -975 232 -112 454
-175 709 -199 677 -66 1351 210 1794 734 358 425 535 990 481 1541 -24 255
-87 477 -199 709 -300 623 -856 1038 -1555 1161 -98 18 -453 26 -555 14z m522
-659 c507 -109 919 -475 1082 -962 54 -159 70 -268 70 -459 0 -191 -16 -300
-70 -459 -166 -497 -599 -873 -1114 -968 -130 -24 -390 -24 -520 0 -588 109
-1058 579 -1167 1167 -24 130 -24 390 0 520 102 551 523 1004 1067 1145 192
50 461 56 652 16z"/>
</g>
</svg>
