<?xml version="1.0" standalone="no"?>
<!DOCTYPE svg PUBLIC "-//W3C//DTD SVG 20010904//EN"
 "http://www.w3.org/TR/2001/REC-SVG-20010904/DTD/svg10.dtd">
<svg version="1.0" xmlns="http://www.w3.org/2000/svg"
 width="500.000000pt" height="522.000000pt" viewBox="0 0 500.000000 522.000000"
 preserveAspectRatio="xMidYMid meet">
<metadata>
Created by potrace 1.11, written by Peter Selinger 2001-2013
</metadata>
<g transform="translate(0.000000,522.000000) scale(0.100000,-0.100000)"
fill="#000000" stroke="none">
<path d="M3452 5200 c-104 -28 -167 -64 -248 -146 -218 -217 -215 -556 6 -773
140 -138 360 -188 547 -126 327 110 471 473 310 780 -43 82 -147 182 -230 223
-125 62 -255 76 -385 42z"/>
<path d="M1872 4550 c-13 -6 -232 -165 -487 -355 -436 -325 -465 -349 -489
-397 -46 -93 -32 -182 40 -252 68 -67 132 -87 199 -64 22 8 217 146 434 307
216 161 400 295 408 298 19 8 583 -258 575 -272 -3 -5 -156 -251 -341 -545
-184 -294 -346 -562 -359 -594 -61 -150 -38 -320 57 -429 18 -20 267 -199 553
-398 286 -199 522 -367 524 -373 3 -7 -131 -285 -296 -619 -327 -663 -321
-647 -279 -735 42 -86 162 -138 259 -113 94 25 83 7 458 757 337 674 347 695
346 751 0 36 -7 72 -18 93 -10 19 -177 195 -372 390 l-353 355 280 470 c154
259 282 471 283 473 2 1 97 -125 212 -280 228 -309 283 -374 331 -394 26 -11
130 -14 510 -14 539 0 523 -2 595 78 103 114 55 285 -95 341 -18 7 -170 11
-422 11 l-393 0 -320 429 c-177 236 -331 436 -344 445 -13 8 -318 155 -678
328 -649 310 -656 313 -725 315 -38 2 -81 -2 -93 -7z"/>
<path d="M1527 1994 l-127 -254 -615 0 c-533 0 -621 -2 -653 -15 -173 -73
-173 -337 0 -409 33 -14 125 -16 711 -16 415 0 695 4 728 10 53 10 57 13 302
258 136 136 247 249 247 252 0 3 -26 21 -57 40 -165 99 -347 262 -389 347
l-20 41 -127 -254z"/>
</g>
</svg>
