<?xml version="1.0" standalone="no"?>
<!DOCTYPE svg PUBLIC "-//W3C//DTD SVG 20010904//EN"
 "http://www.w3.org/TR/2001/REC-SVG-20010904/DTD/svg10.dtd">
<svg version="1.0" xmlns="http://www.w3.org/2000/svg"
 width="827.000000pt" height="827.000000pt" viewBox="0 0 827.000000 827.000000"
 preserveAspectRatio="xMidYMid meet">
<metadata>
Created by potrace 1.11, written by Peter Selinger 2001-2013
</metadata>
<g transform="translate(0.000000,827.000000) scale(0.100000,-0.100000)"
fill="#000000" stroke="none">
<path d="M2398 7996 c-760 -138 -731 -129 -788 -229 -24 -42 -30 -64 -30 -111
0 -59 2 -64 190 -399 104 -186 190 -346 190 -356 0 -12 -175 -114 -631 -366
-346 -192 -632 -352 -634 -355 -2 -4 43 -22 100 -40 95 -29 113 -32 202 -28
82 4 107 9 151 31 83 43 212 70 312 65 69 -4 112 -14 223 -52 138 -48 139 -48
240 -43 87 4 113 9 177 37 107 47 163 60 260 60 101 0 178 -17 302 -66 82 -33
103 -37 178 -37 47 0 98 5 113 12 l29 11 -30 53 c-29 51 -514 932 -638 1158
-58 104 -75 149 -58 149 3 0 216 41 472 91 511 100 530 106 580 181 23 35 27
52 27 112 0 61 -4 79 -31 126 -40 71 -103 112 -177 116 -34 2 -289 -40 -729
-120z"/>
<path d="M3135 7316 c-241 -60 -392 -312 -330 -551 65 -249 305 -393 550 -330
155 40 288 178 324 336 75 324 -224 624 -544 545z"/>
<path d="M6965 7296 c-164 -40 -295 -172 -340 -341 -40 -153 2 -307 115 -429
92 -97 204 -146 335 -146 281 1 501 257 456 532 -45 272 -304 448 -566 384z"/>
<path d="M5615 6736 c-16 -8 -203 -144 -415 -302 -424 -318 -430 -324 -430
-422 0 -63 16 -98 64 -140 52 -46 108 -60 160 -41 22 9 186 125 364 258 178
133 331 246 340 252 13 8 69 -14 256 -103 131 -62 238 -117 238 -123 -1 -5
-133 -220 -293 -478 -205 -329 -297 -486 -311 -530 -39 -124 -6 -267 81 -350
20 -19 225 -166 456 -327 231 -161 426 -298 433 -304 10 -10 -39 -116 -243
-530 -273 -554 -277 -564 -240 -635 33 -65 133 -111 208 -97 83 16 75 3 392
637 314 627 323 648 292 719 -9 21 -138 160 -317 343 l-302 307 28 48 c92 157
438 738 444 745 4 5 90 -103 190 -240 101 -136 197 -263 213 -280 60 -64 69
-65 514 -61 l401 3 44 30 c111 78 115 231 6 303 l-41 27 -350 5 -349 5 -264
355 c-145 195 -274 364 -287 376 -12 11 -274 141 -582 289 -492 236 -567 269
-615 272 -33 2 -67 -2 -85 -11z"/>
<path d="M374 5876 c-33 -8 -94 -28 -135 -45 -79 -32 -142 -49 -199 -53 l-35
-3 -3 -172 c-1 -95 1 -173 5 -173 42 0 148 27 220 54 118 46 230 62 329 47 70
-10 102 -20 242 -73 45 -17 79 -22 162 -22 93 0 112 3 170 28 172 74 157 70
290 71 114 0 132 -3 200 -29 41 -15 100 -38 130 -49 86 -33 232 -29 325 7 169
67 176 69 280 69 117 1 194 -14 286 -54 137 -59 263 -60 408 -2 95 38 156 52
251 59 93 6 148 -6 310 -66 46 -17 107 -32 135 -33 l50 -2 3 171 2 171 -62 6
c-41 3 -99 20 -165 46 -189 77 -342 79 -502 7 -155 -70 -283 -74 -437 -13
-127 50 -157 57 -264 57 -109 0 -180 -16 -284 -63 -67 -30 -77 -32 -191 -32
-109 0 -126 3 -185 28 -225 97 -335 100 -543 14 -100 -41 -105 -42 -217 -42
-104 0 -121 3 -185 29 -153 64 -287 85 -391 62z"/>
<path d="M4109 5392 c-166 -44 -299 -193 -329 -371 -23 -139 28 -287 134 -389
69 -66 119 -95 203 -117 148 -39 302 1 419 107 231 212 178 595 -103 736 -106
54 -207 64 -324 34z"/>
<path d="M5323 4556 l-108 -216 -531 0 -531 0 -34 -23 c-96 -65 -118 -202 -46
-284 57 -65 37 -63 679 -63 321 0 601 5 622 10 33 7 73 42 248 217 114 114
208 210 208 213 0 3 -24 20 -54 38 -138 82 -284 213 -328 293 l-17 31 -108
-216z"/>
<path d="M3231 4665 c-140 -39 -151 -49 -693 -593 -478 -480 -507 -511 -542
-582 -65 -134 -67 -247 -5 -377 54 -114 87 -139 544 -414 231 -138 432 -260
448 -271 l27 -19 0 -630 0 -629 230 0 230 0 -2 827 -3 827 -278 215 -278 215
288 288 c158 158 291 287 295 286 4 -2 101 -142 216 -313 l209 -310 536 -3
537 -2 0 230 0 230 -407 2 -406 3 -237 410 c-215 373 -243 417 -311 487 -95
97 -157 128 -267 134 -50 3 -96 -1 -131 -11z"/>
<path d="M1206 2654 c-432 -78 -802 -390 -959 -809 -59 -157 -72 -234 -72
-440 0 -208 10 -269 75 -446 149 -414 539 -732 983 -804 545 -88 1083 186
1338 682 47 92 102 258 120 363 18 106 16 326 -5 432 -102 528 -509 932 -1033
1023 -107 19 -340 18 -447 -1z m449 -394 c376 -96 643 -425 662 -815 15 -308
-138 -605 -401 -779 -191 -126 -456 -172 -681 -117 -594 144 -868 824 -538
1335 136 211 360 356 610 396 85 13 256 4 348 -20z"/>
<path d="M4763 2655 c-602 -110 -1042 -638 -1043 -1250 0 -110 18 -239 50
-355 30 -107 127 -301 197 -395 71 -95 202 -223 293 -287 363 -256 866 -300
1264 -110 376 180 626 499 713 912 24 115 24 351 0 473 -23 114 -68 240 -125
351 -144 281 -417 513 -722 616 -171 58 -448 77 -627 45z m442 -395 c245 -61
464 -238 575 -465 68 -140 85 -217 84 -390 0 -181 -12 -232 -91 -394 -50 -105
-64 -123 -157 -217 -118 -119 -214 -179 -353 -224 -226 -73 -446 -58 -660 45
-222 108 -379 291 -458 535 -37 114 -46 305 -21 431 19 91 65 209 118 295 51
86 161 198 252 258 123 83 211 116 396 150 52 10 238 -4 315 -24z"/>
</g>
</svg>
